Jump_normalized_Motion_pl01
version=1
nRows=16
nColumns=43
inDegrees=yes
endheader
time		pelvis_tilt		pelvis_list		pelvis_rotation		pelvis_tx		pelvis_ty		pelvis_tz		hip_flexion_r		hip_adduction_r		hip_rotation_r		knee_angle_r		ankle_angle_r		subtalar_angle_r		mtp_angle_r		hip_flexion_l		hip_adduction_l		hip_rotation_l		knee_angle_l		ankle_angle_l		subtalar_angle_l		mtp_angle_l		lumbar_extension		lumbar_bending		lumbar_rotation		neck_flexion		neck_lateral_bending		neck_rotation		arm_flex_r		arm_add_r		arm_rot_r		elbow_flex_r		pro_sup_r		wrist_flex_r		wrist_dev_r		hand_finger_flex_r		arm_flex_l		arm_add_l		arm_rot_l		elbow_flex_l		pro_sup_l		wrist_flex_l		wrist_dev_l		hand_finger_flex_l		
3.698333		-2.903834		-40.367876		84.285823		0.011013		1.645454		1.669306		110.026100		-2.676508		3.800212		-122.199621		11.556929		2.128514		37.773684		105.600248		-11.014559		1.715226		-126.030984		30.776283		-2.461073		5.961595		-41.051439		-5.564196		0.208882		55.519068		6.721323		-1.104762		124.128245		-9.860636		35.360210		47.835235		99.042213		-10.693096		-10.651962		-3.041707		125.731135		-10.465305		33.813372		43.832924		101.237776		-11.788423		-8.176636		5.498535		
3.701237		-2.945677		-40.642221		84.299542		0.010749		1.646121		1.666864		109.938687		-2.817509		3.853242		-122.140012		11.596816		2.225046		37.784115		105.463654		-11.027176		1.583837		-125.931576		30.798411		-2.399219		5.977917		-40.700482		-5.558721		0.167789		55.578618		6.811081		-1.144567		125.111584		-9.549234		35.441709		47.590555		99.045642		-10.451585		-10.562154		-3.221291		126.714723		-10.185806		33.974009		43.634257		101.414374		-11.785073		-8.208984		5.268186		
3.704141		-2.989759		-40.896236		84.315362		0.010389		1.646854		1.664433		109.842935		-2.956970		3.925086		-122.072746		11.633553		2.326002		37.794841		105.304018		-11.020749		1.460635		-125.828989		30.819445		-2.337263		5.994633		-40.365668		-5.540986		0.132722		55.637172		6.901188		-1.185539		126.082964		-9.243550		35.515085		47.349217		99.043429		-10.204920		-10.478982		-3.411199		127.683936		-9.932040		34.137879		43.423329		101.588341		-11.784278		-8.246320		5.028638		
3.707045		-3.154390		-40.664844		84.499628		0.009646		1.648640		1.661658		109.251376		-3.329387		4.219033		-122.032683		11.808935		2.580344		37.854886		104.490516		-10.735576		1.097401		-125.574697		30.868007		-2.211879		6.078455		-40.688564		-5.469822		-0.246358		55.752720		6.982073		-1.236937		127.405264		-8.918246		35.731290		46.853731		98.819551		-9.055204		-10.640802		-4.655482		129.144187		-9.819945		35.023388		42.800997		101.990154		-11.655066		-8.845969		3.808242		
3.709949		-3.208360		-40.938065		84.461248		0.009702		1.649460		1.659045		109.149501		-3.389112		4.227639		-121.957496		11.829588		2.748617		37.879522		104.312508		-10.826968		1.008669		-125.428698		30.906754		-2.205278		6.112454		-40.304800		-5.547277		-0.313474		55.932825		7.047038		-1.254702		128.265548		-8.545757		35.649986		46.493341		98.725431		-8.736072		-10.600249		-5.226556		130.035208		-9.500218		35.083546		42.560332		101.989083		-11.624374		-8.952394		3.331498		
3.712854		-3.218657		-41.169359		84.458529		0.009399		1.650210		1.656251		108.994240		-3.486392		4.293117		-121.900832		11.840376		2.792894		37.893415		104.100783		-10.809533		0.962119		-125.352251		30.899310		-2.155936		6.136520		-39.941869		-5.512251		-0.276651		55.861860		7.083829		-1.279664		129.011195		-8.299227		35.593781		46.484611		98.679780		-8.567005		-10.634325		-5.579922		130.770805		-9.346043		35.095740		42.562971		101.930069		-11.560808		-9.012608		3.091417		
3.715758		-3.255120		-41.163694		84.689473		0.009000		1.651647		1.653472		108.567691		-3.811552		4.433473		-121.834503		11.741685		2.872536		37.957141		103.576117		-10.571602		0.823226		-125.107871		30.915931		-1.959305		6.253524		-39.940580		-5.397305		-0.552991		55.958229		7.066264		-1.339281		130.177608		-7.982713		35.879444		45.952766		98.494420		-7.591319		-10.710668		-7.139395		132.002822		-9.192838		35.707964		42.084429		101.700985		-11.079304		-9.242043		2.068762		
3.718662		-3.247735		-41.474969		84.641911		0.009041		1.652327		1.650576		108.479524		-3.810163		4.426999		-121.763925		11.797739		2.923840		37.960559		103.431395		-10.676989		0.793942		-124.992100		30.915008		-1.954503		6.259717		-39.456364		-5.419075		-0.476660		55.903204		7.103293		-1.341475		130.790446		-7.750098		35.731095		46.000536		98.461923		-7.615920		-10.712409		-7.247903		132.593909		-9.009213		35.559671		42.170535		101.653806		-11.130333		-9.251879		1.989054		
3.721566		-3.244059		-41.787249		84.624537		0.009118		1.653089		1.647678		108.376991		-3.829664		4.417695		-121.678324		11.792149		2.996648		37.964097		103.275243		-10.762138		0.766173		-124.838533		30.921033		-1.929540		6.268377		-38.978924		-5.441537		-0.432908		55.865079		7.133691		-1.350220		131.456406		-7.511485		35.617720		45.935519		98.425181		-7.621200		-10.659946		-7.359863		133.237751		-8.789871		35.457493		42.177267		101.616731		-11.163998		-9.230467		1.907684		
3.724470		-3.243302		-42.041426		84.686225		0.009220		1.653760		1.644932		108.224757		-3.900612		4.406359		-121.619312		11.531777		3.171207		37.974263		103.081456		-10.788564		0.711337		-124.694180		30.997263		-1.827899		6.302711		-38.543107		-5.442367		-0.501199		55.987282		7.161870		-1.384634		132.323055		-7.121423		35.652228		45.385076		98.303544		-7.491410		-10.355508		-7.631163		134.082233		-8.423994		35.540105		41.743428		101.561902		-11.126122		-9.061015		1.717866		
3.727374		-3.240856		-42.271925		84.679102		0.008967		1.654543		1.641861		108.040884		-3.967725		4.460060		-121.531519		11.517076		3.214843		37.978995		102.845286		-10.796234		0.680774		-124.604427		31.007656		-1.770158		6.316831		-38.134425		-5.421537		-0.443791		55.880603		7.191854		-1.400930		132.972156		-6.924347		35.574044		45.321546		98.221678		-7.462631		-10.273911		-7.761194		134.725195		-8.258109		35.511417		41.722162		101.527353		-11.135329		-9.043755		1.622861		
3.730278		-3.230351		-42.507083		84.721499		0.008978		1.655443		1.638715		107.839528		-4.004614		4.492771		-121.432289		11.518223		3.244129		37.982338		102.589108		-10.851512		0.639851		-124.450856		31.007486		-1.718647		6.325847		-37.721220		-5.423667		-0.428327		55.727693		7.209796		-1.413436		133.581419		-6.795112		35.468905		45.243022		98.129537		-7.461987		-10.165735		-7.851336		135.321179		-8.074081		35.473171		41.749586		101.499060		-11.160749		-9.033104		1.545597		
3.733182		-3.212437		-42.495725		84.809555		0.008864		1.656387		1.635282		107.389739		-4.102648		4.576851		-121.394864		11.457968		3.199931		37.996337		102.074589		-10.819689		0.601843		-124.426122		31.058447		-1.568168		6.366621		-37.508301		-5.409198		-0.509601		55.608759		7.229825		-1.423350		134.183762		-6.605544		35.506868		45.061926		97.635372		-7.327118		-9.709170		-8.108366		135.981232		-7.892741		35.683018		41.538091		101.400003		-11.180260		-8.985537		1.244115		
3.736086		-3.197223		-42.202917		84.989782		0.008643		1.658267		1.631952		106.621342		-4.295604		4.712994		-121.282661		11.280589		3.065491		38.032716		101.219495		-10.698978		0.497276		-124.197474		31.230749		-1.187877		6.473711		-37.807273		-5.363028		-0.725987		55.367406		7.281414		-1.443828		135.327034		-6.270688		35.681739		44.523056		96.354681		-6.955478		-8.521922		-8.763778		137.243467		-7.610224		36.298500		40.851869		101.147433		-11.205933		-8.843234		0.472457		
3.738990		-3.161378		-42.489042		85.000969		0.008698		1.659064		1.628763		106.448286		-4.311219		4.664444		-121.163319		10.980880		3.250066		38.040049		101.014572		-10.833072		0.427715		-124.027630		31.218086		-1.159217		6.491283		-37.284731		-5.384676		-0.651762		55.321382		7.425838		-1.498357		135.889162		-6.070648		35.568153		44.207470		96.066279		-7.051670		-8.198155		-8.936793		137.760788		-7.320386		36.208197		40.723713		101.030972		-11.327700		-8.757923		0.250524		
3.741894		-3.074913		-42.646038		85.026293		0.008436		1.660197		1.625637		106.119563		-4.352663		4.639250		-121.003203		10.485148		3.344258		38.067311		100.677655		-10.904024		0.399836		-123.818866		31.167316		-1.051142		6.566544		-36.946460		-5.349988		-0.559836		55.025449		7.691024		-1.601904		136.633337		-5.742443		35.571962		43.773714		94.984846		-7.235779		-7.232611		-9.485650		138.458792		-6.937107		36.259210		40.266296		100.698922		-11.624297		-8.543094		-0.549243		
